<svg width="309" height="79" viewBox="0 0 309 79" fill="none" xmlns="http://www.w3.org/2000/svg">
<path d="M58.5 0H9C4.02944 0 0 4.02944 0 9V69.3C0 74.2706 4.02944 78.3 9 78.3H58.5C63.4706 78.3 67.5 74.2706 67.5 69.3V9C67.5 4.02944 63.4706 0 58.5 0Z" fill="white"/>
<path d="M30.8993 36.095L17.076 22.2717C15.6414 20.8371 15.6414 18.5109 17.076 17.0762C18.5117 15.641 20.8378 15.6415 22.272 17.0762L33.4977 28.3031L44.7279 17.0762C46.1636 15.6419 48.4892 15.6419 49.9239 17.0771C51.3582 18.5117 51.3577 20.8379 49.923 22.2726L36.0952 36.096C35.3778 36.8129 34.4377 37.1715 33.4977 37.1715C32.5571 37.1715 31.6171 36.8128 30.8998 36.0955L30.8993 36.095ZM44.7283 30.8976C46.1639 29.4633 48.4894 29.4638 49.9246 30.899C51.3589 32.3336 51.3584 34.6598 49.9236 36.0945L37.171 48.8416V59.1678C37.171 61.1967 35.526 62.8418 33.497 62.8418C31.468 62.8418 29.823 61.1968 29.823 59.1678V48.8411L17.076 36.093C15.6413 34.6583 15.6413 32.3322 17.076 30.8974C18.5116 29.4622 20.8377 29.4628 22.2719 30.8974L33.4977 42.1232L44.7283 30.8976Z" fill="#8C82FC"/>
<path d="M94.9413 29.4786C103.732 29.4786 110.883 36.6296 110.883 45.4202C110.883 47.2984 109.36 48.821 107.482 48.821H86.4579C87.8097 52.1815 91.103 54.5601 94.9419 54.5601C97.3834 54.5601 99.6786 53.6095 101.405 51.8831C102.733 50.5551 104.886 50.5554 106.214 51.8831C107.543 53.2116 107.542 55.3648 106.214 56.6929C103.203 59.7039 99.1997 61.3618 94.9416 61.3618C86.151 61.3618 79 54.2109 79 45.4202C79 36.6296 86.151 29.4786 94.9416 29.4786H94.9413ZM86.4573 42.0194H103.426C102.074 38.6589 98.7805 36.2803 94.9416 36.2803C91.1027 36.2803 87.8092 38.6589 86.4576 42.0194H86.4573ZM142.765 29.8379C144.444 30.6775 145.125 32.7205 144.285 34.4001L131.744 59.4818C131.168 60.6339 129.991 61.3617 128.703 61.3617C127.415 61.3617 126.237 60.6339 125.661 59.4818L113.12 34.4001C112.28 32.7202 112.961 30.6774 114.641 29.8374C116.321 28.9974 118.364 29.678 119.204 31.3585L128.703 50.3571L138.202 31.36C139.042 29.6796 141.085 28.9998 142.765 29.839L142.765 29.8379ZM165.517 29.5638C174.284 29.5638 181.417 36.6961 181.417 45.4636V57.962C181.417 59.8402 179.894 61.3628 178.016 61.3628C176.138 61.3628 174.615 59.84 174.615 57.962V45.4636C174.615 40.4472 170.534 36.3663 165.518 36.3663C160.502 36.3663 156.421 40.4474 156.421 45.4636V57.962C156.421 59.8402 154.898 61.3628 153.02 61.3628C151.142 61.3628 149.619 59.84 149.619 57.962V21.4019C149.619 19.5237 151.142 18.0011 153.02 18.0011C154.898 18.0011 156.421 19.5238 156.421 21.4019V32.4352C159 30.6285 162.136 29.5639 165.518 29.5639L165.517 29.5638ZM202.293 29.4786C211.083 29.4786 218.234 36.6296 218.234 45.4202C218.234 47.2984 216.711 48.821 214.833 48.821H193.809C195.161 52.1815 198.454 54.5601 202.293 54.5601C204.735 54.5601 207.03 53.6095 208.756 51.8831C210.084 50.5551 212.237 50.5554 213.566 51.8831C214.894 53.2116 214.894 55.3648 213.566 56.6929C210.554 59.7039 206.551 61.3618 202.293 61.3618C193.502 61.3618 186.351 54.2109 186.351 45.4202C186.351 36.6296 193.502 29.4786 202.293 29.4786H202.293ZM193.808 42.0194H210.777C209.425 38.6589 206.132 36.2803 202.293 36.2803C198.454 36.2803 195.16 38.6589 193.809 42.0194H193.808ZM235.567 29.4786C242.382 29.4786 247.925 35.023 247.925 41.8373V57.9617C247.925 59.8398 246.402 61.3625 244.524 61.3625C242.646 61.3625 241.124 59.8397 241.124 57.9617V41.8373C241.124 38.7735 238.631 36.2807 235.567 36.2807C232.503 36.2807 230.01 38.773 230.01 41.8373V57.9617C230.01 59.8398 228.488 61.3625 226.609 61.3625C224.731 61.3625 223.209 59.8397 223.209 57.9617V32.88C223.209 31.0018 224.731 29.4792 226.609 29.4792C227.827 29.4792 228.891 30.1207 229.492 31.0819C231.287 30.0638 233.36 29.4792 235.567 29.4792V29.4786ZM256.343 29.4786C258.221 29.4786 259.744 31.0013 259.744 32.8794V57.961C259.744 59.8392 258.221 61.3618 256.343 61.3618C254.465 61.3618 252.942 59.8391 252.942 57.961V32.8794C252.942 31.0012 254.465 29.4786 256.343 29.4786ZM253.201 22.7018C253.116 22.4977 253.053 22.2809 253.01 22.0641C252.963 21.8472 252.942 21.6219 252.942 21.4009C252.942 21.1798 252.963 20.9545 253.01 20.7377C253.053 20.5209 253.116 20.3041 253.201 20.1C253.286 19.896 253.393 19.6962 253.516 19.5133C253.639 19.3263 253.779 19.152 253.937 18.9947C254.094 18.8375 254.268 18.6972 254.455 18.5739C254.638 18.4506 254.838 18.3443 255.042 18.2593C255.246 18.1743 255.463 18.1106 255.68 18.068C256.785 17.8427 257.958 18.2083 258.749 18.9948C258.902 19.1521 259.047 19.3264 259.17 19.5134C259.293 19.6962 259.399 19.896 259.484 20.1001C259.569 20.3041 259.633 20.5209 259.676 20.7377C259.723 20.9546 259.744 21.1799 259.744 21.4009C259.744 21.622 259.723 21.8473 259.676 22.0641C259.633 22.2809 259.569 22.4977 259.484 22.7018C259.399 22.9058 259.293 23.1056 259.17 23.2884C259.047 23.4755 258.902 23.6498 258.749 23.8071C258.592 23.9643 258.418 24.1046 258.23 24.2279C258.048 24.3512 257.848 24.4575 257.644 24.5425C257.44 24.6275 257.223 24.6912 257.006 24.7338C256.789 24.7805 256.564 24.8018 256.343 24.8018C256.122 24.8018 255.897 24.7805 255.68 24.7338C255.463 24.6912 255.246 24.6275 255.042 24.5425C254.838 24.4575 254.638 24.3512 254.455 24.2279C254.268 24.1046 254.094 23.9643 253.937 23.8071C253.78 23.6498 253.639 23.4755 253.516 23.2884C253.393 23.1056 253.286 22.9058 253.201 22.7018H253.201ZM268.174 29.4786C270.053 29.4786 271.575 31.0013 271.575 32.8794V57.961C271.575 59.8392 270.052 61.3618 268.174 61.3618C266.296 61.3618 264.774 59.8391 264.774 57.961V32.8794C264.774 31.0012 266.296 29.4786 268.174 29.4786ZM265.033 22.7018C264.948 22.4977 264.884 22.2809 264.842 22.0641C264.795 21.8472 264.774 21.6219 264.774 21.4009C264.774 21.1798 264.795 20.9545 264.842 20.7377C264.884 20.5209 264.948 20.3041 265.033 20.1C265.118 19.896 265.224 19.6962 265.347 19.5133C265.471 19.3263 265.611 19.152 265.768 18.9947C265.926 18.8375 266.1 18.6972 266.287 18.5739C266.47 18.4506 266.67 18.3443 266.874 18.2593C267.078 18.1743 267.294 18.1106 267.511 18.068C268.617 17.8427 269.79 18.2083 270.581 18.9948C270.734 19.1521 270.878 19.3264 271.001 19.5134C271.125 19.6962 271.231 19.896 271.316 20.1001C271.401 20.3041 271.465 20.5209 271.507 20.7377C271.554 20.9546 271.575 21.1799 271.575 21.4009C271.575 21.622 271.554 21.8473 271.507 22.0641C271.465 22.2809 271.401 22.4977 271.316 22.7018C271.231 22.9058 271.125 23.1056 271.001 23.2884C270.878 23.4755 270.734 23.6498 270.581 23.8071C270.423 23.9643 270.249 24.1046 270.062 24.2279C269.879 24.3512 269.679 24.4575 269.475 24.5425C269.271 24.6275 269.054 24.6912 268.838 24.7338C268.621 24.7805 268.396 24.8018 268.174 24.8018C267.953 24.8018 267.728 24.7805 267.511 24.7338C267.294 24.6912 267.078 24.6275 266.874 24.5425C266.67 24.4575 266.47 24.3512 266.287 24.2279C266.1 24.1046 265.926 23.9643 265.768 23.8071C265.611 23.6498 265.471 23.4755 265.348 23.2884C265.224 23.1056 265.118 22.9058 265.033 22.7018H265.033ZM308.004 55.556C309.332 56.8841 309.332 59.0377 308.003 60.3658C307.339 61.0298 306.469 61.3618 305.598 61.3618C304.728 61.3618 303.858 61.0298 303.194 60.3658L292.802 49.9744L282.411 60.3658C281.76 61.0162 280.89 61.3618 280.005 61.3618C279.567 61.3618 279.125 61.2772 278.704 61.1029C277.434 60.5766 276.605 59.3366 276.605 57.9609V21.4008C276.605 19.5226 278.128 18 280.006 18C281.884 18 283.407 19.5227 283.407 21.4008V37.3656L303.284 18.909C304.66 17.6312 306.812 17.7106 308.09 19.0872C309.368 20.4637 309.288 22.6156 307.912 23.8935L291.541 39.0949L308.004 55.556ZM283.407 49.7508L287.993 45.1652L286.554 43.7262L283.407 46.648V49.7508V49.7508Z" fill="white"/>
</svg>
