<svg width="287" height="59" viewBox="0 0 287 59" fill="none" xmlns="http://www.w3.org/2000/svg">
<path d="M72.9413 23.4786C81.732 23.4786 88.8829 30.6296 88.8829 39.4202C88.8829 41.2984 87.3602 42.821 85.4821 42.821H64.4579C65.8097 46.1816 69.103 48.5601 72.9419 48.5601C75.3834 48.5601 77.6786 47.6095 79.4047 45.8831C80.7332 44.5551 82.886 44.5555 84.2144 45.8831C85.5429 47.2116 85.5425 49.3648 84.2144 50.6929C81.203 53.7039 77.1997 55.3618 72.9416 55.3618C64.151 55.3618 57 48.2109 57 39.4202C57 30.6296 64.151 23.4786 72.9416 23.4786H72.9413ZM64.4573 36.0194H81.4257C80.0738 32.6589 76.7805 30.2804 72.9416 30.2804C69.1027 30.2804 65.8092 32.6589 64.4576 36.0194H64.4573ZM120.765 23.8379C122.444 24.6775 123.125 26.7205 122.285 28.4002L109.744 53.4818C109.168 54.6339 107.991 55.3617 106.703 55.3617C105.415 55.3617 104.237 54.6339 103.661 53.4818L91.1203 28.4002C90.2803 26.7202 90.9613 24.6774 92.6409 23.8374C94.3209 22.9974 96.3637 23.678 97.2036 25.3585L106.703 44.3571L116.202 25.36C117.042 23.6796 119.085 22.9998 120.765 23.839L120.765 23.8379ZM143.517 23.5638C152.284 23.5638 159.417 30.6962 159.417 39.4636V51.962C159.417 53.8402 157.894 55.3628 156.016 55.3628C154.138 55.3628 152.615 53.84 152.615 51.962V39.4636C152.615 34.4473 148.534 30.3663 143.518 30.3663C138.502 30.3663 134.421 34.4474 134.421 39.4636V51.962C134.421 53.8402 132.898 55.3628 131.02 55.3628C129.142 55.3628 127.619 53.84 127.619 51.962V15.4019C127.619 13.5237 129.142 12.0011 131.02 12.0011C132.898 12.0011 134.421 13.5238 134.421 15.4019V26.4353C137 24.6285 140.136 23.5639 143.518 23.5639L143.517 23.5638ZM180.293 23.4786C189.083 23.4786 196.234 30.6296 196.234 39.4202C196.234 41.2984 194.711 42.821 192.833 42.821H171.809C173.161 46.1816 176.454 48.5601 180.293 48.5601C182.735 48.5601 185.03 47.6095 186.756 45.8831C188.084 44.5551 190.237 44.5555 191.566 45.8831C192.894 47.2116 192.894 49.3648 191.566 50.6929C188.554 53.7039 184.551 55.3618 180.293 55.3618C171.502 55.3618 164.351 48.2109 164.351 39.4202C164.351 30.6296 171.502 23.4786 180.293 23.4786H180.293ZM171.808 36.0194H188.777C187.425 32.6589 184.132 30.2804 180.293 30.2804C176.454 30.2804 173.16 32.6589 171.809 36.0194H171.808ZM213.567 23.4786C220.382 23.4786 225.925 29.023 225.925 35.8373V51.9617C225.925 53.8399 224.402 55.3625 222.524 55.3625C220.646 55.3625 219.124 53.8397 219.124 51.9617V35.8373C219.124 32.7735 216.631 30.2807 213.567 30.2807C210.503 30.2807 208.01 32.773 208.01 35.8373V51.9617C208.01 53.8399 206.488 55.3625 204.609 55.3625C202.731 55.3625 201.209 53.8397 201.209 51.9617V26.88C201.209 25.0018 202.731 23.4792 204.609 23.4792C205.827 23.4792 206.891 24.1207 207.492 25.0819C209.287 24.0638 211.36 23.4792 213.567 23.4792V23.4786ZM234.343 23.4786C236.221 23.4786 237.744 25.0013 237.744 26.8794V51.9611C237.744 53.8392 236.221 55.3618 234.343 55.3618C232.465 55.3618 230.942 53.8391 230.942 51.9611V26.8794C230.942 25.0012 232.465 23.4786 234.343 23.4786ZM231.201 16.7018C231.116 16.4977 231.053 16.2809 231.01 16.0641C230.963 15.8473 230.942 15.6219 230.942 15.4009C230.942 15.1798 230.963 14.9545 231.01 14.7377C231.053 14.5209 231.116 14.3041 231.201 14.1C231.286 13.896 231.393 13.6962 231.516 13.5134C231.639 13.3263 231.779 13.152 231.937 12.9947C232.094 12.8375 232.268 12.6972 232.455 12.5739C232.638 12.4506 232.838 12.3443 233.042 12.2593C233.246 12.1743 233.463 12.1106 233.68 12.068C234.785 11.8427 235.958 12.2083 236.749 12.9948C236.902 13.1521 237.047 13.3264 237.17 13.5134C237.293 13.6962 237.399 13.896 237.484 14.1001C237.569 14.3041 237.633 14.5209 237.676 14.7377C237.723 14.9546 237.744 15.1799 237.744 15.4009C237.744 15.622 237.723 15.8473 237.676 16.0641C237.633 16.2809 237.569 16.4977 237.484 16.7018C237.399 16.9058 237.293 17.1056 237.17 17.2885C237.047 17.4755 236.902 17.6498 236.749 17.8071C236.592 17.9643 236.418 18.1046 236.23 18.2279C236.048 18.3512 235.848 18.4575 235.644 18.5425C235.44 18.6275 235.223 18.6912 235.006 18.7338C234.789 18.7805 234.564 18.8018 234.343 18.8018C234.122 18.8018 233.897 18.7805 233.68 18.7338C233.463 18.6912 233.246 18.6275 233.042 18.5425C232.838 18.4575 232.638 18.3512 232.455 18.2279C232.268 18.1046 232.094 17.9643 231.937 17.8071C231.78 17.6498 231.639 17.4755 231.516 17.2885C231.393 17.1056 231.286 16.9058 231.201 16.7018H231.201ZM246.174 23.4786C248.053 23.4786 249.575 25.0013 249.575 26.8794V51.9611C249.575 53.8392 248.052 55.3618 246.174 55.3618C244.296 55.3618 242.774 53.8391 242.774 51.9611V26.8794C242.774 25.0012 244.296 23.4786 246.174 23.4786ZM243.033 16.7018C242.948 16.4977 242.884 16.2809 242.842 16.0641C242.795 15.8473 242.774 15.6219 242.774 15.4009C242.774 15.1798 242.795 14.9545 242.842 14.7377C242.884 14.5209 242.948 14.3041 243.033 14.1C243.118 13.896 243.224 13.6962 243.347 13.5134C243.471 13.3263 243.611 13.152 243.768 12.9947C243.926 12.8375 244.1 12.6972 244.287 12.5739C244.47 12.4506 244.67 12.3443 244.874 12.2593C245.078 12.1743 245.294 12.1106 245.511 12.068C246.617 11.8427 247.79 12.2083 248.581 12.9948C248.734 13.1521 248.878 13.3264 249.001 13.5134C249.125 13.6962 249.231 13.896 249.316 14.1001C249.401 14.3041 249.465 14.5209 249.507 14.7377C249.554 14.9546 249.575 15.1799 249.575 15.4009C249.575 15.622 249.554 15.8473 249.507 16.0641C249.465 16.2809 249.401 16.4977 249.316 16.7018C249.231 16.9058 249.125 17.1056 249.001 17.2885C248.878 17.4755 248.734 17.6498 248.581 17.8071C248.423 17.9643 248.249 18.1046 248.062 18.2279C247.879 18.3512 247.679 18.4575 247.475 18.5425C247.271 18.6275 247.054 18.6912 246.838 18.7338C246.621 18.7805 246.396 18.8018 246.174 18.8018C245.953 18.8018 245.728 18.7805 245.511 18.7338C245.294 18.6912 245.078 18.6275 244.874 18.5425C244.67 18.4575 244.47 18.3512 244.287 18.2279C244.1 18.1046 243.926 17.9643 243.768 17.8071C243.611 17.6498 243.471 17.4755 243.348 17.2885C243.224 17.1056 243.118 16.9058 243.033 16.7018H243.033ZM286.004 49.556C287.332 50.8841 287.332 53.0377 286.003 54.3658C285.339 55.0298 284.469 55.3618 283.598 55.3618C282.728 55.3618 281.858 55.0298 281.194 54.3658L270.802 43.9744L260.411 54.3658C259.76 55.0162 258.89 55.3618 258.005 55.3618C257.567 55.3618 257.125 55.2772 256.704 55.1029C255.434 54.5766 254.605 53.3366 254.605 51.9609V15.4008C254.605 13.5226 256.128 12 258.006 12C259.884 12 261.407 13.5227 261.407 15.4008V31.3656L281.284 12.909C282.66 11.6312 284.812 11.7107 286.09 13.0872C287.368 14.4637 287.288 16.6156 285.912 17.8935L269.541 33.0949L286.004 49.556ZM261.407 43.7508L265.993 39.1652L264.554 37.7262L261.407 40.648V43.7508V43.7508Z" fill="#8C82FC"/>
<rect width="47" height="59" rx="6" fill="#8C82FC"/>
<path d="M20.8993 26.0948L7.076 12.2716C5.64136 10.837 5.64136 8.51094 7.076 7.07619C8.51165 5.64099 10.8378 5.64155 12.272 7.07619L23.4976 18.303L34.7278 7.07619C36.1635 5.64188 38.4892 5.64188 39.9238 7.07711C41.3581 8.51175 41.3577 10.8378 39.9229 12.2726L26.0951 26.0957C25.3777 26.8126 24.4376 27.1712 23.4976 27.1712C22.5571 27.1712 21.6167 26.8121 20.8993 26.0948ZM34.7282 20.8975C36.1638 19.4632 38.4893 19.4636 39.9245 20.8989C41.3588 22.3335 41.3583 24.6595 39.9236 26.0943L27.1709 38.841V49.1671C27.1709 51.196 25.5259 52.8411 23.4969 52.8411C21.4679 52.8411 19.823 51.1961 19.823 49.1671V38.8406L7.07598 26.0927C5.64134 24.6581 5.64134 22.3321 7.07598 20.8973C8.51163 19.4621 10.8378 19.4627 12.272 20.8973L23.4976 32.1228L34.7282 20.8975Z" fill="white"/>
</svg>
