<svg width="313" height="79" viewBox="0 0 313 79" fill="none" xmlns="http://www.w3.org/2000/svg">
<path d="M58.5 0H9C4.02944 0 0 4.02944 0 9V69.3C0 74.2706 4.02944 78.3 9 78.3H58.5C63.4706 78.3 67.5 74.2706 67.5 69.3V9C67.5 4.02944 63.4706 0 58.5 0Z" fill="#8C82FC"/>
<path d="M31.8993 36.095L18.076 22.2717C16.6414 20.8371 16.6414 18.5109 18.076 17.0762C19.5117 15.641 21.8378 15.6415 23.272 17.0762L34.4977 28.3031L45.7279 17.0762C47.1636 15.6419 49.4892 15.6419 50.9239 17.0771C52.3582 18.5117 52.3577 20.8379 50.923 22.2726L37.0952 36.096C36.3778 36.8129 35.4377 37.1715 34.4977 37.1715C33.5571 37.1715 32.6171 36.8128 31.8998 36.0955L31.8993 36.095ZM45.7283 30.8976C47.1639 29.4633 49.4894 29.4638 50.9246 30.899C52.3589 32.3336 52.3584 34.6598 50.9236 36.0945L38.171 48.8416V59.1678C38.171 61.1967 36.526 62.8418 34.497 62.8418C32.468 62.8418 30.823 61.1968 30.823 59.1678V48.8411L18.076 36.093C16.6413 34.6583 16.6413 32.3322 18.076 30.8974C19.5116 29.4622 21.8377 29.4628 23.2719 30.8974L34.4977 42.1232L45.7283 30.8976Z" fill="white"/>
<path d="M96.1492 31.0627C105.055 31.0627 112.299 38.307 112.299 47.2123C112.299 49.115 110.756 50.6574 108.854 50.6574H87.5552C88.9246 54.0618 92.2609 56.4714 96.1499 56.4714C98.6231 56.4714 100.948 55.5084 102.697 53.7595C104.043 52.4141 106.224 52.4145 107.569 53.7595C108.915 55.1053 108.915 57.2865 107.569 58.632C104.519 61.6822 100.463 63.3618 96.1496 63.3618C87.2442 63.3618 80 56.1176 80 47.2123C80 38.307 87.2442 31.0627 96.1496 31.0627H96.1492ZM87.5546 43.7671H104.744C103.375 40.3628 100.039 37.9532 96.1496 37.9532C92.2606 37.9532 88.9241 40.3628 87.5549 43.7671H87.5546ZM144.596 31.4267C146.298 32.2773 146.988 34.3469 146.137 36.0485L133.432 61.4573C132.849 62.6244 131.656 63.3617 130.351 63.3617C129.046 63.3617 127.853 62.6244 127.27 61.4573L114.565 36.0485C113.714 34.3466 114.404 32.2772 116.106 31.4262C117.808 30.5753 119.877 31.2647 120.728 32.9671L130.351 52.2136L139.974 32.9687C140.825 31.2664 142.894 30.5776 144.597 31.4278L144.596 31.4267ZM167.646 31.149C176.527 31.149 183.753 38.3744 183.753 47.2562V59.9176C183.753 61.8203 182.21 63.3628 180.308 63.3628C178.405 63.3628 176.863 61.8202 176.863 59.9176V47.2562C176.863 42.1744 172.728 38.0403 167.647 38.0403C162.565 38.0403 158.431 42.1746 158.431 47.2562V59.9176C158.431 61.8203 156.888 63.3628 154.985 63.3628C153.083 63.3628 151.54 61.8202 151.54 59.9176V22.8806C151.54 20.978 153.083 19.4355 154.985 19.4355C156.888 19.4355 158.431 20.9781 158.431 22.8806V34.0579C161.044 32.2276 164.221 31.1492 167.647 31.1492L167.646 31.149ZM204.901 31.0627C213.806 31.0627 221.05 38.307 221.05 47.2123C221.05 49.115 219.508 50.6574 217.605 50.6574H196.307C197.676 54.0618 201.012 56.4714 204.901 56.4714C207.375 56.4714 209.7 55.5084 211.448 53.7595C212.794 52.4141 214.975 52.4145 216.321 53.7595C217.667 55.1053 217.666 57.2865 216.321 58.632C213.27 61.6822 209.215 63.3618 204.901 63.3618C195.996 63.3618 188.751 56.1176 188.751 47.2123C188.751 38.307 195.996 31.0627 204.901 31.0627H204.901ZM196.306 43.7671H213.496C212.126 40.3628 208.79 37.9532 204.901 37.9532C201.012 37.9532 197.676 40.3628 196.306 43.7671H196.306ZM238.609 31.0627C245.513 31.0627 251.128 36.6795 251.128 43.5826V59.9173C251.128 61.82 249.586 63.3625 247.683 63.3625C245.781 63.3625 244.238 61.8199 244.238 59.9173V43.5826C244.238 40.4789 241.713 37.9535 238.609 37.9535C235.505 37.9535 232.98 40.4784 232.98 43.5826V59.9173C232.98 61.82 231.437 63.3625 229.535 63.3625C227.632 63.3625 226.09 61.8199 226.09 59.9173V34.5085C226.09 32.6058 227.632 31.0634 229.535 31.0634C230.768 31.0634 231.846 31.7132 232.455 32.6869C234.274 31.6555 236.373 31.0634 238.609 31.0634V31.0627ZM259.656 31.0627C261.559 31.0627 263.101 32.6053 263.101 34.5079V59.9167C263.101 61.8194 261.559 63.3618 259.656 63.3618C257.753 63.3618 256.211 61.8192 256.211 59.9167V34.5079C256.211 32.6052 257.753 31.0627 259.656 31.0627ZM256.474 24.1975C256.387 23.9908 256.323 23.7711 256.28 23.5515C256.232 23.3318 256.211 23.1036 256.211 22.8796C256.211 22.6557 256.232 22.4274 256.28 22.2078C256.323 21.9882 256.387 21.7685 256.474 21.5618C256.56 21.3551 256.667 21.1527 256.792 20.9675C256.917 20.778 257.059 20.6015 257.219 20.4421C257.378 20.2828 257.554 20.1407 257.744 20.0158C257.929 19.8909 258.132 19.7832 258.338 19.6971C258.545 19.611 258.765 19.5464 258.984 19.5033C260.104 19.2751 261.293 19.6455 262.094 20.4422C262.249 20.6015 262.395 20.7781 262.52 20.9676C262.645 21.1528 262.753 21.3552 262.839 21.5619C262.925 21.7686 262.989 21.9882 263.032 22.2079C263.08 22.4275 263.101 22.6558 263.101 22.8797C263.101 23.1036 263.08 23.3319 263.032 23.5515C262.989 23.7712 262.925 23.9908 262.839 24.1975C262.753 24.4042 262.645 24.6066 262.52 24.7918C262.395 24.9813 262.249 25.1579 262.094 25.3172C261.934 25.4765 261.758 25.6187 261.568 25.7436C261.383 25.8684 261.181 25.9761 260.974 26.0622C260.767 26.1483 260.548 26.2129 260.328 26.256C260.108 26.3034 259.88 26.3249 259.656 26.3249C259.432 26.3249 259.204 26.3034 258.984 26.256C258.765 26.2129 258.545 26.1483 258.338 26.0622C258.132 25.9761 257.929 25.8684 257.744 25.7436C257.554 25.6187 257.378 25.4765 257.219 25.3172C257.059 25.1579 256.917 24.9813 256.792 24.7918C256.667 24.6066 256.56 24.4042 256.474 24.1975H256.474ZM271.642 31.0627C273.545 31.0627 275.087 32.6053 275.087 34.5079V59.9167C275.087 61.8194 273.544 63.3618 271.642 63.3618C269.739 63.3618 268.197 61.8192 268.197 59.9167V34.5079C268.197 32.6052 269.739 31.0627 271.642 31.0627ZM268.459 24.1975C268.373 23.9908 268.309 23.7711 268.266 23.5515C268.218 23.3318 268.197 23.1036 268.197 22.8796C268.197 22.6557 268.218 22.4274 268.266 22.2078C268.309 21.9882 268.373 21.7685 268.459 21.5618C268.546 21.3551 268.653 21.1527 268.778 20.9675C268.903 20.778 269.045 20.6015 269.204 20.4421C269.364 20.2828 269.54 20.1407 269.73 20.0158C269.915 19.8909 270.117 19.7832 270.324 19.6971C270.531 19.611 270.75 19.5464 270.97 19.5033C272.09 19.2751 273.278 19.6455 274.08 20.4422C274.235 20.6015 274.381 20.7781 274.506 20.9676C274.631 21.1528 274.738 21.3552 274.825 21.5619C274.911 21.7686 274.975 21.9882 275.018 22.2079C275.066 22.4275 275.087 22.6558 275.087 22.8797C275.087 23.1036 275.066 23.3319 275.018 23.5515C274.975 23.7712 274.911 23.9908 274.825 24.1975C274.738 24.4042 274.631 24.6066 274.506 24.7918C274.381 24.9813 274.235 25.1579 274.08 25.3172C273.92 25.4765 273.744 25.6187 273.554 25.7436C273.369 25.8684 273.167 25.9761 272.96 26.0622C272.753 26.1483 272.533 26.2129 272.314 26.256C272.094 26.3034 271.866 26.3249 271.642 26.3249C271.418 26.3249 271.19 26.3034 270.97 26.256C270.751 26.2129 270.531 26.1483 270.324 26.0622C270.117 25.9761 269.915 25.8684 269.73 25.7436C269.54 25.6187 269.364 25.4765 269.204 25.3172C269.045 25.1579 268.903 24.9813 268.778 24.7918C268.653 24.6066 268.546 24.4042 268.459 24.1975H268.459ZM311.991 57.4803C313.337 58.8257 313.337 61.0073 311.99 62.3528C311.318 63.0255 310.436 63.3618 309.554 63.3618C308.672 63.3618 307.791 63.0254 307.118 62.3528L296.591 51.8259L286.064 62.3528C285.405 63.0117 284.524 63.3618 283.627 63.3618C283.183 63.3618 282.736 63.2761 282.309 63.0995C281.022 62.5664 280.183 61.3101 280.183 59.9165V22.8796C280.183 20.9769 281.725 19.4344 283.628 19.4344C285.53 19.4344 287.073 20.977 287.073 22.8796V39.0526L307.209 20.3553C308.603 19.0608 310.783 19.1413 312.078 20.5358C313.373 21.9303 313.292 24.1102 311.897 25.4048L295.313 40.8045L311.991 57.4803ZM287.074 51.5994L291.719 46.9539L290.261 45.4961L287.074 48.4561V51.5994V51.5994Z" fill="#8C82FC"/>
</svg>
