<svg width="35" height="47" viewBox="0 0 35 47" fill="none" xmlns="http://www.w3.org/2000/svg">
<path d="M14.8993 20.095L1.076 6.27171C-0.358638 4.83707 -0.358638 2.51094 1.076 1.07619C2.51165 -0.359009 4.83777 -0.358451 6.27197 1.07619L17.4977 12.3031L28.7279 1.07619C30.1636 -0.358117 32.4892 -0.358117 33.9239 1.07711C35.3582 2.51175 35.3577 4.83787 33.923 6.27262L20.0952 20.096C19.3778 20.8129 18.4377 21.1715 17.4977 21.1715C16.5571 21.1715 15.6171 20.8128 14.8998 20.0955L14.8993 20.095ZM28.7283 14.8976C30.1639 13.4633 32.4894 13.4638 33.9246 14.899C35.3589 16.3336 35.3584 18.6598 33.9236 20.0945L21.171 32.8416V43.1678C21.171 45.1967 19.526 46.8418 17.497 46.8418C15.468 46.8418 13.823 45.1968 13.823 43.1678V32.8411L1.07598 20.093C-0.358661 18.6583 -0.358661 16.3322 1.07598 14.8974C2.51163 13.4622 4.83775 13.4628 6.27195 14.8974L17.4977 26.1232L28.7283 14.8976Z" fill="#8C82FC"/>
</svg>
