<svg width="255" height="39" viewBox="0 0 255 39" fill="none" xmlns="http://www.w3.org/2000/svg">
<path d="M20.7523 0H29.1597V13.5156V37.6202H20.7523V34.8532C20.3798 35.811 17.8789 38.1523 13.622 38.1523C7.28992 38.1523 0 33.6294 0 23.7321C0 14.2074 7.28992 9.47157 13.622 9.47157C17.8789 9.47157 20.3798 11.9193 20.7523 12.5046V0V0ZM14.8459 30.756C18.3046 30.756 21.1248 28.3615 21.1248 23.7321C21.1248 19.2624 18.3046 16.8679 14.8459 16.8679C11.2275 16.8679 8.14129 19.3156 8.14129 23.7321C8.14129 28.3083 11.2275 30.756 14.8459 30.756V30.756ZM48.3157 9.47157C54.5946 9.47157 63.3744 14.2074 61.6184 26.712H42.3028C43.2606 29.5854 45.7615 31.0753 49.1138 31.0753C52.5193 31.0753 53.5836 30.3303 55.4992 29.5321L60.1285 34.0019C57.6808 36.3964 54.3817 38.1523 48.7946 38.1523C41.9303 38.1523 33.7358 33.4166 33.7358 23.8918C33.7358 14.2074 42.0368 9.47157 48.3157 9.47157ZM48.3157 16.6551C45.9212 16.6551 43.4735 18.0386 42.4092 20.8055H54.1689C53.3175 18.0386 50.7102 16.6551 48.3157 16.6551V16.6551ZM97.2166 9.84405L84.8185 37.6202H77.4221L65.0239 9.84405H73.3781L81.1469 27.6165L88.8625 9.84405H97.2166V9.84405ZM118.235 9.52478C123.396 9.52478 128.664 12.9835 128.664 21.7633V37.6202H120.257V22.3487C120.257 18.145 118.82 16.8147 116.16 16.8147C112.382 16.8147 110.2 20.4863 109.668 22.0826V37.6202H101.261V0H109.668V14.7395C110.2 13.4092 113.02 9.52478 118.235 9.52478V9.52478ZM147.501 9.47157C153.78 9.47157 162.56 14.2074 160.804 26.712H141.488C142.446 29.5854 144.947 31.0753 148.299 31.0753C151.705 31.0753 152.769 30.3303 154.685 29.5321L159.314 34.0019C156.866 36.3964 153.567 38.1523 147.98 38.1523C141.116 38.1523 132.921 33.4166 132.921 23.8918C132.921 14.2074 141.222 9.47157 147.501 9.47157V9.47157ZM147.501 16.6551C145.107 16.6551 142.659 18.0386 141.595 20.8055H153.354C152.503 18.0386 149.896 16.6551 147.501 16.6551ZM182.567 9.52478C187.729 9.52478 192.997 12.9835 192.997 21.7633V37.6202H184.589V22.3487C184.589 18.145 183.153 16.8147 180.492 16.8147C176.714 16.8147 174.532 20.4863 174 22.0826V37.6202H165.593V9.95047H174V14.7395C174.532 13.4092 177.353 9.52478 182.567 9.52478V9.52478ZM206.512 0V7.07707H198.105V0H206.512ZM206.512 9.95047V37.6202H198.105V9.95047H206.512ZM220.347 0V7.07707H211.94V0H220.347ZM220.347 9.95047V37.6202H211.94V9.95047H220.347ZM244.931 37.6202L235.938 26.8716L234.182 28.734V37.6202H225.775V27.5633V0H234.182V18.4642L242.004 9.95047H252.061L241.099 21.4973L254.509 37.6202H244.931V37.6202Z" fill="#8C82FC"/>
</svg>
