<svg width="35" height="47" viewBox="0 0 35 47" fill="none" xmlns="http://www.w3.org/2000/svg">
<path d="M14.8993 20.0948L1.076 6.27164C-0.358638 4.837 -0.358638 2.51094 1.076 1.07619C2.51165 -0.359009 4.83781 -0.358451 6.27201 1.07619L17.4976 12.303L28.7278 1.07619C30.1635 -0.358117 32.4892 -0.358116 33.9238 1.07711C35.3581 2.51175 35.3577 4.83781 33.9229 6.27256L20.0951 20.0957C19.3777 20.8126 18.4376 21.1712 17.4976 21.1712C16.5571 21.1712 15.6167 20.8121 14.8993 20.0948ZM28.7282 14.8975C30.1638 13.4632 32.4893 13.4636 33.9245 14.8989C35.3588 16.3335 35.3583 18.6595 33.9236 20.0943L21.1709 32.841V43.1671C21.1709 45.196 19.5259 46.8411 17.4969 46.8411C15.4679 46.8411 13.823 45.1961 13.823 43.1671V32.8406L1.07598 20.0927C-0.358661 18.6581 -0.358661 16.3321 1.07598 14.8973C2.51163 13.4621 4.83779 13.4627 6.27199 14.8973L17.4976 26.1228L28.7282 14.8975Z" fill="white"/>
</svg>
