<svg width="230" height="44" viewBox="0 0 230 44" fill="none" xmlns="http://www.w3.org/2000/svg">
<path d="M15.9413 11.4786C24.732 11.4786 31.8829 18.6296 31.8829 27.4202C31.8829 29.2984 30.3602 30.821 28.4821 30.821H7.4579C8.80974 34.1816 12.103 36.5601 15.9419 36.5601C18.3834 36.5601 20.6786 35.6095 22.4047 33.8831C23.7332 32.5551 25.886 32.5555 27.2144 33.8831C28.5429 35.2116 28.5425 37.3648 27.2144 38.6929C24.203 41.7039 20.1997 43.3618 15.9416 43.3618C7.15097 43.3618 0 36.2109 0 27.4202C0 18.6296 7.15097 11.4786 15.9416 11.4786H15.9413ZM7.45728 24.0194H24.4257C23.0738 20.6589 19.7805 18.2804 15.9416 18.2804C12.1027 18.2804 8.80924 20.6589 7.45759 24.0194H7.45728ZM63.7646 11.8379C65.4443 12.6775 66.1252 14.7205 65.2853 16.4002L52.7444 41.4818C52.1684 42.6339 50.9908 43.3617 49.7028 43.3617C48.4148 43.3617 47.237 42.6339 46.6611 41.4818L34.1203 16.4002C33.2803 14.7202 33.9613 12.6774 35.6409 11.8374C37.3209 10.9974 39.3637 11.678 40.2036 13.3585L49.703 32.3571L59.2023 13.36C60.0419 11.6796 62.0846 10.9998 63.765 11.839L63.7646 11.8379ZM86.5171 11.5638C95.2843 11.5638 102.417 18.6962 102.417 27.4636V39.962C102.417 41.8402 100.894 43.3628 99.0161 43.3628C97.1381 43.3628 95.6153 41.84 95.6153 39.962V27.4636C95.6153 22.4473 91.5342 18.3663 86.5181 18.3663C81.5019 18.3663 77.4208 22.4474 77.4208 27.4636V39.962C77.4208 41.8402 75.898 43.3628 74.02 43.3628C72.1419 43.3628 70.6192 41.84 70.6192 39.962V3.40186C70.6192 1.52368 72.1419 0.00106779 74.02 0.00106779C75.898 0.00106779 77.4208 1.52381 77.4208 3.40186V14.4353C80.0003 12.6285 83.1365 11.5639 86.5181 11.5639L86.5171 11.5638ZM123.293 11.4786C132.083 11.4786 139.234 18.6296 139.234 27.4202C139.234 29.2984 137.711 30.821 135.833 30.821H114.809C116.161 34.1816 119.454 36.5601 123.293 36.5601C125.735 36.5601 128.03 35.6095 129.756 33.8831C131.084 32.5551 133.237 32.5555 134.566 33.8831C135.894 35.2116 135.894 37.3648 134.566 38.6929C131.554 41.7039 127.551 43.3618 123.293 43.3618C114.502 43.3618 107.351 36.2109 107.351 27.4202C107.351 18.6296 114.502 11.4786 123.293 11.4786H123.293ZM114.808 24.0194H131.777C130.425 20.6589 127.132 18.2804 123.293 18.2804C119.454 18.2804 116.16 20.6589 114.809 24.0194H114.808ZM156.567 11.4786C163.382 11.4786 168.925 17.023 168.925 23.8373V39.9617C168.925 41.8399 167.402 43.3625 165.524 43.3625C163.646 43.3625 162.124 41.8397 162.124 39.9617V23.8373C162.124 20.7735 159.631 18.2807 156.567 18.2807C153.503 18.2807 151.01 20.773 151.01 23.8373V39.9617C151.01 41.8399 149.488 43.3625 147.609 43.3625C145.731 43.3625 144.209 41.8397 144.209 39.9617V14.88C144.209 13.0018 145.731 11.4792 147.609 11.4792C148.827 11.4792 149.891 12.1207 150.492 13.0819C152.287 12.0638 154.36 11.4792 156.567 11.4792V11.4786ZM177.343 11.4786C179.221 11.4786 180.744 13.0013 180.744 14.8794V39.9611C180.744 41.8392 179.221 43.3618 177.343 43.3618C175.465 43.3618 173.942 41.8391 173.942 39.9611V14.8794C173.942 13.0012 175.465 11.4786 177.343 11.4786ZM174.201 4.70179C174.116 4.49774 174.053 4.28087 174.01 4.06406C173.963 3.84725 173.942 3.62191 173.942 3.40087C173.942 3.17984 173.963 2.9545 174.01 2.73769C174.053 2.52088 174.116 2.30407 174.201 2.10002C174.286 1.89597 174.393 1.69617 174.516 1.51335C174.639 1.32631 174.779 1.15203 174.937 0.994748C175.094 0.837469 175.268 0.697178 175.455 0.573892C175.638 0.450608 175.838 0.344322 176.042 0.259333C176.246 0.174344 176.463 0.110578 176.68 0.0680463C177.785 -0.157295 178.958 0.208334 179.749 0.99481C179.902 1.15209 180.047 1.32637 180.17 1.51342C180.293 1.69623 180.399 1.89604 180.484 2.10008C180.569 2.30413 180.633 2.52094 180.676 2.73775C180.723 2.95456 180.744 3.1799 180.744 3.40094C180.744 3.62197 180.723 3.84731 180.676 4.06412C180.633 4.28093 180.569 4.49774 180.484 4.70179C180.399 4.90583 180.293 5.10564 180.17 5.28846C180.047 5.4755 179.902 5.64978 179.749 5.80706C179.592 5.96434 179.418 6.10463 179.23 6.22792C179.048 6.3512 178.848 6.45749 178.644 6.54248C178.44 6.62747 178.223 6.69123 178.006 6.73376C177.789 6.78052 177.564 6.80176 177.343 6.80176C177.122 6.80176 176.897 6.78053 176.68 6.73376C176.463 6.69124 176.246 6.62748 176.042 6.54248C175.838 6.45747 175.638 6.35119 175.455 6.22792C175.268 6.10463 175.094 5.96434 174.937 5.80706C174.78 5.64978 174.639 5.4755 174.516 5.28846C174.393 5.10564 174.286 4.90583 174.201 4.70179H174.201ZM189.174 11.4786C191.053 11.4786 192.575 13.0013 192.575 14.8794V39.9611C192.575 41.8392 191.052 43.3618 189.174 43.3618C187.296 43.3618 185.774 41.8391 185.774 39.9611V14.8794C185.774 13.0012 187.296 11.4786 189.174 11.4786ZM186.033 4.70179C185.948 4.49774 185.884 4.28087 185.842 4.06406C185.795 3.84725 185.774 3.62191 185.774 3.40087C185.774 3.17984 185.795 2.9545 185.842 2.73769C185.884 2.52088 185.948 2.30407 186.033 2.10002C186.118 1.89597 186.224 1.69617 186.347 1.51335C186.471 1.32631 186.611 1.15203 186.768 0.994748C186.926 0.837469 187.1 0.697178 187.287 0.573892C187.47 0.450608 187.67 0.344322 187.874 0.259333C188.078 0.174344 188.294 0.110578 188.511 0.0680463C189.617 -0.157295 190.79 0.208334 191.581 0.99481C191.734 1.15209 191.878 1.32637 192.001 1.51342C192.125 1.69623 192.231 1.89604 192.316 2.10008C192.401 2.30413 192.465 2.52094 192.507 2.73775C192.554 2.95456 192.575 3.1799 192.575 3.40094C192.575 3.62197 192.554 3.84731 192.507 4.06412C192.465 4.28093 192.401 4.49774 192.316 4.70179C192.231 4.90583 192.125 5.10564 192.001 5.28846C191.878 5.4755 191.734 5.64978 191.581 5.80706C191.423 5.96434 191.249 6.10463 191.062 6.22792C190.879 6.3512 190.679 6.45749 190.475 6.54248C190.271 6.62747 190.054 6.69123 189.838 6.73376C189.621 6.78052 189.396 6.80176 189.174 6.80176C188.953 6.80176 188.728 6.78053 188.511 6.73376C188.294 6.69124 188.078 6.62748 187.874 6.54248C187.67 6.45747 187.47 6.35119 187.287 6.22792C187.1 6.10463 186.926 5.96434 186.768 5.80706C186.611 5.64978 186.471 5.4755 186.348 5.28846C186.224 5.10564 186.118 4.90583 186.033 4.70179H186.033ZM229.004 37.556C230.332 38.8841 230.332 41.0377 229.003 42.3658C228.339 43.0298 227.469 43.3618 226.598 43.3618C225.728 43.3618 224.858 43.0298 224.194 42.3658L213.802 31.9744L203.411 42.3658C202.76 43.0162 201.89 43.3618 201.005 43.3618C200.567 43.3618 200.125 43.2772 199.704 43.1029C198.434 42.5766 197.605 41.3366 197.605 39.9609V3.4008C197.605 1.52262 199.128 0 201.006 0C202.884 0 204.407 1.52274 204.407 3.4008V19.3656L224.284 0.909047C225.66 -0.368822 227.812 -0.289347 229.09 1.0872C230.368 2.46375 230.288 4.6156 228.912 5.89354L212.541 21.0949L229.004 37.556ZM204.407 31.7508L208.993 27.1652L207.554 25.7262L204.407 28.648V31.7508V31.7508Z" fill="#8C82FC"/>
</svg>
