<svg width="67" height="62" viewBox="0 0 67 62" fill="none" xmlns="http://www.w3.org/2000/svg">
<path d="M65.4739 24.5536C65.4615 24.5245 65.4406 24.5002 65.4115 24.4842C63.9137 23.6382 62.325 23.209 60.6898 23.209C58.5402 23.209 56.3773 23.9662 54.263 25.4585C54.091 25.5792 53.8906 25.643 53.6819 25.643C53.3532 25.643 53.0453 25.4835 52.8567 25.2158C52.5363 24.7616 52.6445 24.1313 53.1001 23.8102C55.6332 22.0218 57.9715 21.1529 60.2474 21.1529C61.3597 21.1529 62.49 21.3603 63.7063 21.7888C63.7639 21.8089 63.8284 21.7902 63.8658 21.7423C63.9054 21.6938 64.8152 20.5087 64.3249 17.6247C64.1078 16.5886 63.7098 15.7426 63.1467 15.1178C62.0116 13.6776 60.8604 13.3752 60.0942 13.3752C59.6185 13.3752 59.3175 13.4938 59.3043 13.4986C59.2766 13.5097 59.253 13.5292 59.2371 13.5555C58.1359 15.287 56.8579 16.45 54.523 17.8472C54.3656 17.9409 54.1874 17.9901 54.0057 17.9901C53.652 17.9901 53.3213 17.8022 53.1396 17.4991C52.8539 17.022 53.0099 16.4014 53.487 16.1157C56.3052 14.4292 57.4258 13.3204 58.104 11.5397C58.4465 10.2831 58.0242 8.58834 57.1248 7.60365L56.9445 7.38244C55.9217 6.12383 54.021 3.78067 49.2154 2.54981C48.5483 2.33761 47.8673 2.23013 47.1905 2.23013C45.2322 2.23013 43.9549 3.1115 43.9015 3.14894C43.8488 3.1857 43.8273 3.25296 43.8474 3.31329C44.0381 3.8736 44.6192 5.57809 44.0277 7.48646C43.8966 7.91154 43.5083 8.19655 43.0645 8.19655C42.9633 8.19655 42.8627 8.18198 42.7649 8.15147C42.2344 7.98643 41.9363 7.42058 42.1013 6.8894C42.4931 5.62524 42.4092 4.50879 41.8454 3.47764C41.1083 2.12819 40.0861 1.21977 38.727 0.701769C37.4295 0.149785 35.3735 0.0270444 34.5441 0C29.2011 0.0291248 25.392 0.373074 20.5712 2.09768C19.954 2.29878 19.4727 2.70306 19.2155 3.23493C18.9117 3.86458 18.9187 4.64956 19.237 5.50458C19.2411 5.51499 19.2522 5.54966 19.2716 5.60513C19.6447 6.69662 20.0095 7.67577 20.3562 8.51692C20.4588 8.76587 20.4588 9.03978 20.3555 9.28873C20.2522 9.53698 20.058 9.73114 19.8091 9.83377C19.6856 9.8844 19.5566 9.91005 19.4249 9.91005C19.0178 9.91005 18.6517 9.66457 18.4915 9.28526C18.2023 8.59528 17.3015 6.33811 17.2932 6.3173C17.2766 6.27292 16.8591 5.22582 15.5145 5.22582C14.5049 5.22582 13.2518 5.82704 11.7935 7.01144C9.85393 8.51414 8.86368 9.87538 8.84981 11.0563C8.84011 11.8892 9.33731 12.3018 9.37198 12.3288C9.7721 12.584 11.9461 14.2413 12.8545 15.2531C13.2345 15.6754 13.222 16.3036 12.826 16.6823C12.6374 16.8626 12.3899 16.9617 12.1291 16.9617C11.8511 16.9617 11.5924 16.8508 11.4003 16.6504C9.14522 14.2947 7.29649 13.1485 5.74733 13.1485C5.52959 13.1485 5.31601 13.172 5.11213 13.2185C4.51092 13.3565 3.53593 14.0492 2.94927 14.9618C0.880719 17.6496 0.205302 19.7584 0.0146039 23.3671C-0.100508 25.5272 0.482681 27.6353 1.13729 28.5513C2.0575 29.8383 2.98811 30.5672 3.34107 30.8223C3.34107 30.8223 3.62469 31.0026 3.73287 30.918C4.65377 30.1948 5.7085 29.8148 7.00316 29.8148C7.77774 29.8148 8.65357 29.9451 9.60636 30.2031C9.85878 30.2717 10.0696 30.4368 10.1993 30.6684C10.3324 30.9056 10.365 31.1919 10.288 31.4534C10.1632 31.8805 9.76586 32.1787 9.31997 32.1787C9.22428 32.1787 9.12927 32.1642 9.03704 32.1378C8.37134 31.9436 7.75001 31.8611 7.19109 31.8445C6.64049 31.8299 5.63638 31.8819 5.18148 32.3958C5.16068 32.4193 5.14195 32.4429 5.13502 32.4727C5.12878 32.5012 5.02129 34.956 8.51557 36.2083C11.4502 37.2596 12.9758 37.2943 19.3535 37.2943C20.2938 37.2943 21.3284 37.2846 22.6078 37.2631C22.9303 37.2541 23.3872 37.0953 23.6785 36.7576C23.9004 36.501 23.9954 36.1792 23.9531 35.8429C23.9496 35.3013 24.0335 34.8069 24.2194 34.2868C24.9836 32.1454 26.5223 30.7474 29.2094 29.751C29.3231 29.7087 29.4403 29.6872 29.5603 29.6872C29.9798 29.6872 30.3592 29.9521 30.5055 30.3459C30.5991 30.5984 30.5894 30.8723 30.4764 31.1171C30.364 31.3625 30.1636 31.5484 29.9112 31.6427C27.8565 32.4048 26.591 33.4935 26.1485 34.8783C25.4031 37.2152 27.1284 39.781 27.1492 39.8018C32.2842 44.8341 42.2608 44.9777 42.7622 43.5811C43.1845 42.5444 43.475 40.8988 42.4563 38.944C40.8607 35.8831 35.4477 35.6931 35.3929 35.6903C34.8374 35.6751 34.3971 35.2098 34.4131 34.6557C34.4276 34.1148 34.8811 33.6745 35.4456 33.6745C35.7167 33.6821 42.0964 33.8915 44.2441 38.012C45.4104 40.2484 45.2461 42.2386 44.9021 43.518C44.8196 43.8612 44.882 44.2079 45.0686 44.4458C45.1878 44.5956 45.4104 44.7745 45.8057 44.7745C45.8057 44.7745 49.3395 44.7974 52.227 44.1969C52.6174 44.1164 52.9898 44.4049 53.0508 44.7967C53.1119 45.1899 52.8421 45.5588 52.4496 45.6198C48.212 46.2827 44.4965 46.6142 41.2712 46.6142C37.3741 46.6142 34.1918 46.1295 31.6649 45.1594C31.7079 46.9408 32.3133 48.4941 33.4138 49.7652C33.4207 49.7756 33.427 49.7833 33.4332 49.793C33.8 50.1792 34.3499 50.7257 34.852 51.1833C35.2362 51.5335 37.0537 52.6916 37.5266 52.9773C38.4392 53.5099 42.5888 56.0631 42.9875 56.3197C44.8141 57.4965 45.3549 58.7738 45.4118 58.8501C45.6067 59.108 45.7072 59.8736 45.7072 59.8736C45.8723 60.5601 46.4915 61.0705 47.2293 61.0684C48.0913 61.0663 48.7896 60.3653 48.7868 59.5026C48.7868 59.5026 48.8111 57.7489 48.1274 56.5471C48.0178 56.3246 46.5789 53.9668 44.9181 52.686C44.4139 52.297 43.2247 51.4274 43.2247 51.4274L43.2178 51.424C43.0825 51.3317 43.0402 51.1501 43.1269 51.0093C43.215 50.8664 43.4029 50.8207 43.5478 50.9087C43.5478 50.9087 47.0518 53.3698 49.2487 52.7575C52.4773 51.8581 56.7032 49.7347 56.7032 44.9569C56.7032 44.2468 56.6325 43.579 56.498 42.95C56.9459 42.7115 57.3911 42.4417 57.8356 42.1318C58.3571 41.7143 58.5124 41.197 58.5506 40.8364C58.6046 40.3205 58.4556 39.774 58.1608 39.4135L56.0333 36.6736L56.0084 36.6466C55.5653 36.0835 54.9855 35.9656 54.5764 35.9656C54.2276 35.9656 53.9544 36.0495 53.8081 36.105C53.0605 36.4823 52.2728 36.7915 51.4705 37.0238C50.9421 37.1757 50.3713 36.8546 50.2216 36.3346C50.1474 36.0759 50.1772 35.8034 50.3069 35.5676C50.4372 35.3318 50.6508 35.1612 50.9102 35.087C52.7409 34.5579 56.0437 33.0975 57.6096 29.2607C57.7642 28.8793 58.131 28.6331 58.5443 28.6331C58.6747 28.6331 58.8023 28.6581 58.9236 28.708C59.4389 28.9174 59.6878 29.5076 59.477 30.0228C58.9749 31.2537 58.287 32.368 57.4202 33.3541C57.025 33.9921 57.0763 34.6529 57.5825 35.3804L58.9722 37.1861C58.9909 37.2118 59.0166 37.2298 59.0464 37.2374C59.0693 37.2444 59.6122 37.3976 60.3875 37.3976C61.4318 37.3976 62.9096 37.114 64.0156 35.759C66.7187 32.5268 66.8504 29.7302 66.9454 27.688C66.9558 27.4848 66.9641 27.2871 66.9759 27.0763C66.8567 25.5806 65.9011 24.8212 65.4739 24.5536ZM24.0689 23.2138C22.7687 24.4988 21.3339 25.4447 19.8063 26.0265C19.7889 26.0327 19.7744 26.0424 19.7619 26.0549C19.0587 26.437 18.8133 26.964 18.9443 27.8142L19.5234 31.1101C19.5754 31.3743 19.5213 31.6434 19.3708 31.8667C19.2203 32.09 18.9929 32.2425 18.728 32.2938C18.1836 32.4013 17.649 32.0345 17.5436 31.4991L16.9125 27.9418C16.7197 27.1942 16.002 26.799 15.5367 26.7463C15.518 26.7359 15.4958 26.7296 15.4722 26.7289C10.4593 26.5479 6.44702 23.3095 6.4068 23.2769C6.19877 23.1057 6.06909 22.8643 6.04205 22.5967C6.0157 22.329 6.09544 22.0662 6.26534 21.8581C6.45742 21.6231 6.74243 21.4885 7.04616 21.4885C7.27708 21.4885 7.50383 21.569 7.68344 21.716C7.8353 21.8394 11.4523 24.7401 15.7933 24.7401C18.3549 24.7401 20.6627 23.7436 22.6522 21.7798C23.035 21.4012 23.6993 21.4046 24.0779 21.7888C24.2672 21.9802 24.3705 22.2347 24.3685 22.5037C24.3678 22.7721 24.261 23.0245 24.0689 23.2138ZM25.3982 16.2107C22.2465 16.2107 19.9921 18.1607 19.8971 18.2432C19.7127 18.4048 19.4769 18.4942 19.2321 18.4942C18.9416 18.4942 18.6649 18.3694 18.4742 18.1517C18.2966 17.9492 18.2079 17.6898 18.2259 17.4208C18.2426 17.1524 18.3639 16.9062 18.5664 16.7287C19.9471 15.5152 22.474 14.2191 25.4239 14.2191C27.5493 14.2191 29.5818 14.8932 31.4652 16.2232C31.685 16.3785 31.8313 16.6101 31.8771 16.8757C31.9229 17.1406 31.8626 17.4083 31.7072 17.6281C31.5186 17.8958 31.21 18.0553 30.8827 18.0553C30.674 18.0553 30.4736 17.9915 30.3023 17.8701C28.7427 16.7689 27.0923 16.2107 25.3982 16.2107ZM48.7348 30.5054C48.5615 30.7121 48.318 30.8383 48.0504 30.8619C43.7073 31.2426 40.4717 30.2856 38.5037 28.0326C38.1965 27.6817 37.915 27.2885 37.6681 26.8641C37.6625 26.8537 37.6542 26.844 37.6466 26.835C37.3852 26.5722 37.0273 26.4314 36.5822 26.4155C36.4247 26.4099 36.2583 26.4196 36.0732 26.446C36.0531 26.4418 34.7972 26.7178 33.5643 26.6769C30.7849 26.5854 28.9979 25.2824 28.9237 25.2276C28.4758 24.8975 28.3808 24.2651 28.7108 23.8171C28.9078 23.5488 29.2254 23.3955 29.5582 23.408C29.76 23.4149 29.9528 23.4815 30.1171 23.6015C30.1733 23.6417 31.5158 24.5328 33.6184 24.6576C34.635 24.7179 35.6321 24.3969 35.7535 24.3455C36.5308 24.0189 36.5017 23.157 36.4636 22.8234C36.2985 20.8741 36.6439 19.3194 36.6577 19.2536C36.7777 18.7203 37.3248 18.3701 37.8636 18.4922C38.4038 18.6149 38.7464 19.1544 38.6251 19.696C38.6153 19.7397 37.6972 24.0564 40.03 26.7151C41.5535 28.4508 44.2087 29.1754 47.8749 28.853C48.4408 28.8058 48.92 29.2219 48.9671 29.7697C48.99 30.0374 48.9082 30.2988 48.7348 30.5054ZM47.9429 14.8966C46.1372 16.6282 45.2475 19.3825 45.6788 21.915C45.7634 22.4081 45.4298 22.8782 44.9375 22.9621C44.8862 22.9711 44.8342 22.9753 44.7829 22.9753C44.3397 22.9753 43.9431 22.6612 43.8897 22.2201C43.5582 19.5143 44.4341 17.0165 44.4445 16.9908C44.5027 16.8487 44.5103 16.7253 44.466 16.624C44.4132 16.4992 44.2926 16.4305 44.199 16.3938C41.4918 16.0942 36.6161 15.0638 34.352 11.5299C34.0032 11.0161 33.0906 11.2796 31.6129 11.2775C24.9738 11.2664 24.0328 7.00243 23.9961 6.82075C23.9482 6.58359 23.9954 6.34088 24.1292 6.13909C24.2631 5.9366 24.4669 5.79861 24.7048 5.75076C24.7644 5.73828 24.8255 5.73203 24.8858 5.73203C25.3109 5.73203 25.6839 6.03438 25.7734 6.45045C25.8018 6.57249 26.5299 9.46001 31.6282 9.46001C31.8806 9.46001 32.1434 9.45307 32.409 9.43851C32.995 9.36708 33.323 9.0585 33.4082 8.49681C33.4922 6.53227 34.972 5.07187 35.8332 4.5192C35.9795 4.42489 36.1487 4.37496 36.3221 4.37496C36.6335 4.37496 36.9192 4.53098 37.0877 4.79241C37.2187 4.99629 37.2624 5.23899 37.2104 5.47546C37.1584 5.71262 37.0176 5.9151 36.8145 6.04617C36.7208 6.10788 34.5226 7.5773 35.4539 9.7464C37.1307 13.6533 42.8336 14.4826 45.2072 14.6574C45.5068 14.6338 45.848 14.4549 46.1406 14.1664C46.341 13.9355 46.5151 13.7497 46.6878 13.5846C48.9949 11.3732 49.1328 9.20829 49.1377 9.11744C49.1634 8.61816 49.5898 8.22983 50.0856 8.25549C50.5815 8.27768 50.9698 8.6986 50.9511 9.19372C50.9469 9.31438 50.8068 12.152 47.9429 14.8966Z" fill="white"/>
</svg>
